<?xml version="1.0" encoding="UTF-8"?>
<svg id="Layer_2" data-name="Layer 2" xmlns="http://www.w3.org/2000/svg" viewBox="0 0 21.13 24.95">
  <defs>
    <style>
      .cls-1 {
        fill: none;
      }

      .cls-1, .cls-2 {
        stroke: #444;
        stroke-linecap: round;
        stroke-miterlimit: 10;
        stroke-width: 1.89px;
      }

      .cls-2, .cls-3 {
        fill: #444;
      }

      .cls-3 {
        stroke-width: 0px;
      }
    </style>
  </defs>
  <g id="Layer_1-2" data-name="Layer 1">
    <line class="cls-2" x1=".95" y1="4.12" x2="20.19" y2="4.12"/>
    <polyline class="cls-1" points="6.05 4.12 7.46 .95 13.71 .95 15.08 4.12"/>
    <path class="cls-3" d="m19.2,6.88H1.93c-.29,0-.51.3-.45.62l1.95,16.85c.06.35.34.6.66.6h12.96c.32,0,.59-.25.66-.6l1.95-16.85c.06-.32-.16-.62-.45-.62Zm-12.06,15.54c-.38.03-.71-.25-.75-.63l-1.02-11.63c-.03-.38.25-.71.63-.75.38-.03.71.25.75.63l1.02,11.63c.03.38-.25.71-.63.75Zm4.12-.67c0,.38-.31.69-.69.69h0c-.38,0-.69-.31-.69-.69v-11.67c0-.38.31-.69.69-.69h0c.38,0,.69.31.69.69v11.67Zm3.49-.02c-.03.38-.37.66-.75.63-.38-.03-.66-.37-.63-.75l1.02-11.63c.03-.38.37-.66.75-.63.38.03.66.37.63.75l-1.02,11.63Z"/>
  </g>
</svg>