<?xml version="1.0" encoding="UTF-8"?>
<svg id="Layer_2" data-name="Layer 2" xmlns="http://www.w3.org/2000/svg" viewBox="0 0 14.02 16">
  <defs>
    <style>
      .cls-1 {
        fill: #757575;
        stroke-width: 0px;
      }
    </style>
  </defs>
  <g id="Layer_1-2" data-name="Layer 1">
    <path class="cls-1" d="m6.39,1.96c-1.31,1.92-1.82,4.36-1.23,6.74.59,2.38,2.15,4.31,4.21,5.4-.45.1-.92.15-1.38.15-2.88,0-5.37-1.95-6.06-4.75-.4-1.62-.15-3.3.72-4.73.84-1.4,2.17-2.39,3.74-2.81m1.61-1.96c-.64,0-1.28.08-1.93.24C1.79,1.3-.82,5.63.24,9.92c.9,3.64,4.17,6.08,7.76,6.08.64,0,1.28-.08,1.93-.24,1.65-.41,3.05-1.3,4.09-2.49-.24.03-.48.04-.72.04-2.98,0-5.68-2.02-6.43-5.04-.81-3.26.95-6.55,4-7.75-.9-.34-1.86-.53-2.85-.53h0Zm2.85.53s0,0,0,0h0s0,0,0,0h0Zm3.15,12.75h0,0s0,0,0,0h0Z"/>
  </g>
</svg>