<?xml version="1.0" encoding="UTF-8"?>
<svg id="Layer_2" data-name="Layer 2" xmlns="http://www.w3.org/2000/svg" viewBox="0 0 18 16.04">
  <defs>
    <style>
      .cls-1 {
        fill: none;
        stroke: #757575;
        stroke-miterlimit: 10;
        stroke-width: 1.75px;
      }

      .cls-2 {
        fill: #757575;
        stroke-width: 0px;
      }
    </style>
  </defs>
  <g id="Layer_1-2" data-name="Layer 1">
    <path class="cls-2" d="m13.66,1.75c1.43,0,2.59,1.16,2.59,2.59v7.36c0,1.43-1.16,2.59-2.59,2.59H4.34c-1.43,0-2.59-1.16-2.59-2.59v-7.36c0-1.43,1.16-2.59,2.59-2.59h9.32m0-1.75H4.34C1.94,0,0,1.94,0,4.34v7.36c0,2.4,1.94,4.34,4.34,4.34h9.32c2.4,0,4.34-1.94,4.34-4.34v-7.36c0-2.4-1.94-4.34-4.34-4.34h0Z"/>
    <line class="cls-1" x1="6.96" y1="1.19" x2="6.96" y2="15.07"/>
    <line class="cls-1" x1="2.73" y1="4.65" x2="4.93" y2="4.65"/>
    <line class="cls-1" x1="2.73" y1="8.02" x2="4.93" y2="8.02"/>
  </g>
</svg>