<?xml version="1.0" encoding="UTF-8"?>
<svg id="Layer_2" data-name="Layer 2" xmlns="http://www.w3.org/2000/svg" viewBox="0 0 22 19.61">
  <defs>
    <style>
      .cls-1 {
        fill: none;
        stroke: #000;
        stroke-miterlimit: 10;
      }

      .cls-2 {
        stroke-width: 0px;
      }
    </style>
  </defs>
  <g id="Layer_1-2" data-name="Layer 1">
    <path class="cls-2" d="m18.97,2c.57,0,1.03.46,1.03,1.03v13.56c0,.57-.46,1.03-1.03,1.03H3.03c-.57,0-1.03-.46-1.03-1.03V3.03c0-.57.46-1.03,1.03-1.03h15.95m0-2H3.03C1.36,0,0,1.36,0,3.03v13.56c0,1.67,1.36,3.03,3.03,3.03h15.95c1.67,0,3.03-1.36,3.03-3.03V3.03c0-1.67-1.36-3.03-3.03-3.03h0Z"/>
    <line class="cls-1" x1="9.93" y1="1.46" x2="9.93" y2="18.42"/>
    <line class="cls-1" x1="3.15" y1="3.58" x2="7.78" y2="3.58"/>
    <line class="cls-1" x1="3.15" y1="6.47" x2="7.78" y2="6.47"/>
    <line class="cls-1" x1="3.15" y1="9.37" x2="5.27" y2="9.37"/>
  </g>
</svg>