<svg width="80" height="80" viewBox="0 0 80 80" fill="none" xmlns="http://www.w3.org/2000/svg">
<g clip-path="url(#clip0_1116_1220)">
<rect width="80" height="80" fill="white"/>
<g clip-path="url(#clip1_1116_1220)">
<path d="M87.5 -7.5H-7.5V87.5H87.5V-7.5Z" fill="#FBC203"/>
<mask id="mask0_1116_1220" style="mask-type:luminance" maskUnits="userSpaceOnUse" x="10" y="25" width="60" height="30">
<mask id="mask1_1116_1220" style="mask-type:luminance" maskUnits="userSpaceOnUse" x="10" y="25" width="60" height="30">
<path d="M69.3164 25.3418H10.498V54.5617H69.3164V25.3418Z" fill="white"/>
</mask>
<g mask="url(#mask1_1116_1220)">
<path d="M25.0134 29.6967C26.8911 29.6967 28.3439 30.3795 29.4535 31.7451H29.5389V30.1234H33.4669V46.7726C33.4669 49.1624 32.7841 51.042 31.3331 52.4076C29.8821 53.6879 28.0879 54.3707 25.8687 54.3707C22.3675 54.3707 19.8923 52.749 18.7827 50.1866L21.7719 48.1382C22.7107 50.0159 23.8203 50.8713 25.7853 50.8713C27.919 50.8713 29.2865 49.7617 29.2865 47.37V45.2362C28.6891 46.3458 26.8967 47.2847 25.1024 47.2847C22.9687 47.2847 21.1744 46.5165 19.7234 44.9802C18.2725 43.4438 17.5896 41.2229 17.5896 38.4916C17.5896 35.7604 18.3578 33.6247 19.8088 32.0884C21.2598 30.4667 23.054 29.6985 25.0171 29.6985L25.0134 29.6967ZM61.4715 29.6967C63.6906 29.6967 65.5702 30.5502 66.9358 32.0865C68.3868 33.7082 69.0696 35.7585 69.0696 38.4897V39.6847H57.9702C58.0556 42.2452 59.4212 43.6127 61.6422 43.6127C63.5199 43.6127 64.6313 42.5885 65.7409 40.9668L68.5594 43.6127C66.8523 46.0879 64.546 47.2847 61.644 47.2847C59.3395 47.2847 57.46 46.5165 55.9236 44.8948C54.3873 43.2731 53.7045 41.1375 53.7045 38.4916C53.7045 35.8457 54.3873 33.7101 55.8383 32.0884C57.46 30.4667 59.2542 29.6985 61.4733 29.6985L61.4715 29.6967ZM14.6821 30.1234V46.8579H10.6687V34.0273C10.7281 31.8583 12.4982 30.1234 14.6821 30.1234ZM45.1638 29.782C48.8357 29.782 51.0549 32.0865 51.0549 36.0145V46.8579H46.9562V36.9534C46.9562 34.6489 46.188 33.4521 44.0523 33.4521C41.9167 33.4521 40.8071 34.7324 40.8071 36.612V46.7726H36.7084V30.2088H40.6364V31.8305H40.7218C41.6606 30.6355 43.3677 29.782 45.1619 29.782H45.1638ZM25.6962 33.3687C23.3063 33.3687 21.5975 35.161 21.5975 38.4916C21.5975 41.8222 23.3045 43.6145 25.6962 43.6145C27.83 43.6145 29.2828 42.0782 29.2828 40.1986V36.7827C29.2828 34.905 27.8318 33.3668 25.6962 33.3668V33.3687ZM61.4715 33.2833C59.423 33.2833 58.0556 34.7343 57.8849 36.6992H65.1416C64.8855 34.5654 63.6053 33.2833 61.4696 33.2833H61.4715ZM14.8528 25.3438V25.4291C14.7675 27.8189 12.8897 29.6985 10.498 29.6985V25.3438H14.8528Z" fill="white"/>
</g>
</mask>
<g mask="url(#mask0_1116_1220)">
<path d="M69.4486 24.9609H10.1182V54.7505H69.4486V24.9609Z" fill="#23252E"/>
</g>
</g>
</g>
<defs>
<clipPath id="clip0_1116_1220">
<rect width="80" height="80" fill="white"/>
</clipPath>
<clipPath id="clip1_1116_1220">
<rect width="95" height="95" fill="white" transform="translate(-7.5 -7.5)"/>
</clipPath>
</defs>
</svg>
